<mxfile host="app.diagrams.net" modified="2022-12-20T20:07:07.192Z" agent="5.0 (Windows NT 10.0; Win64; x64) AppleWebKit/537.36 (KHTML, like Gecko) Chrome/108.0.0.0 Safari/537.36" etag="GA0pMtvsqAMZ_sBuc-86" version="20.7.4" type="github">
  <diagram name="Page-1" id="2a216829-ef6e-dabb-86c1-c78162f3ba2b">
    <mxGraphModel dx="1167" dy="610" grid="1" gridSize="10" guides="1" tooltips="1" connect="1" arrows="1" fold="1" page="1" pageScale="1" pageWidth="850" pageHeight="1100" background="none" math="0" shadow="0">
      <root>
        <mxCell id="0" />
        <mxCell id="1" parent="0" />
        <mxCell id="OT7cg2ur5c4f-DrXH7eK-117" value="" style="rounded=0;whiteSpace=wrap;html=1;fillColor=none;strokeWidth=2;" parent="1" vertex="1">
          <mxGeometry x="130" y="20" width="1350" height="710" as="geometry" />
        </mxCell>
        <mxCell id="7a84cebc1def654-2" value="Der Support MA nimmt das Anliegen des Kunden per Telefon oder E-Mail an" style="shape=ext;rounded=1;html=1;whiteSpace=wrap;" parent="1" vertex="1">
          <mxGeometry x="360" y="250" width="120" height="80" as="geometry" />
        </mxCell>
        <mxCell id="7a84cebc1def654-39" style="edgeStyle=orthogonalEdgeStyle;rounded=0;html=1;jettySize=auto;orthogonalLoop=1;entryX=0;entryY=0.5;entryDx=0;entryDy=0;" parent="1" source="7a84cebc1def654-2" edge="1">
          <mxGeometry relative="1" as="geometry">
            <mxPoint x="540" y="290" as="targetPoint" />
          </mxGeometry>
        </mxCell>
        <mxCell id="7a84cebc1def654-50" style="edgeStyle=orthogonalEdgeStyle;rounded=0;html=1;jettySize=auto;orthogonalLoop=1;entryX=0.5;entryY=1;entryDx=0;entryDy=0;" parent="1" edge="1">
          <mxGeometry relative="1" as="geometry">
            <Array as="points">
              <mxPoint x="655" y="290" />
            </Array>
            <mxPoint x="590" y="290" as="sourcePoint" />
            <mxPoint x="655" y="170" as="targetPoint" />
          </mxGeometry>
        </mxCell>
        <mxCell id="OT7cg2ur5c4f-DrXH7eK-1" value="" style="endArrow=classic;html=1;rounded=0;exitX=1;exitY=0.5;exitDx=0;exitDy=0;entryX=0;entryY=0.5;entryDx=0;entryDy=0;" parent="1" target="7a84cebc1def654-2" edge="1">
          <mxGeometry width="50" height="50" relative="1" as="geometry">
            <mxPoint x="290" y="290" as="sourcePoint" />
            <mxPoint x="340" y="220" as="targetPoint" />
          </mxGeometry>
        </mxCell>
        <mxCell id="OT7cg2ur5c4f-DrXH7eK-2" value="Der Support MA versteht und kategorisiert das Anliegen" style="text;html=1;strokeColor=none;fillColor=none;align=center;verticalAlign=middle;whiteSpace=wrap;rounded=0;" parent="1" vertex="1">
          <mxGeometry x="480" y="225" width="170" height="40" as="geometry" />
        </mxCell>
        <mxCell id="OT7cg2ur5c4f-DrXH7eK-4" value="Ja" style="text;html=1;strokeColor=none;fillColor=none;align=center;verticalAlign=middle;whiteSpace=wrap;rounded=0;" parent="1" vertex="1">
          <mxGeometry x="660" y="360" width="60" height="30" as="geometry" />
        </mxCell>
        <mxCell id="OT7cg2ur5c4f-DrXH7eK-10" value="" style="points=[[0.145,0.145,0],[0.5,0,0],[0.855,0.145,0],[1,0.5,0],[0.855,0.855,0],[0.5,1,0],[0.145,0.855,0],[0,0.5,0]];shape=mxgraph.bpmn.event;html=1;verticalLabelPosition=bottom;labelBackgroundColor=#ffffff;verticalAlign=top;align=center;perimeter=ellipsePerimeter;outlineConnect=0;aspect=fixed;outline=standard;symbol=message;" parent="1" vertex="1">
          <mxGeometry x="250" y="265" width="50" height="50" as="geometry" />
        </mxCell>
        <mxCell id="OT7cg2ur5c4f-DrXH7eK-17" value="Neuanforderung" style="text;html=1;strokeColor=none;fillColor=none;align=center;verticalAlign=middle;whiteSpace=wrap;rounded=0;" parent="1" vertex="1">
          <mxGeometry x="675" y="225" width="60" height="30" as="geometry" />
        </mxCell>
        <mxCell id="OT7cg2ur5c4f-DrXH7eK-19" style="edgeStyle=orthogonalEdgeStyle;rounded=0;html=1;jettySize=auto;orthogonalLoop=1;entryX=0;entryY=0.5;entryDx=0;entryDy=0;" parent="1" edge="1">
          <mxGeometry relative="1" as="geometry">
            <Array as="points" />
            <mxPoint x="590" y="290" as="sourcePoint" />
            <mxPoint x="830" y="290" as="targetPoint" />
          </mxGeometry>
        </mxCell>
        <mxCell id="OT7cg2ur5c4f-DrXH7eK-20" style="edgeStyle=orthogonalEdgeStyle;rounded=0;html=1;jettySize=auto;orthogonalLoop=1;" parent="1" target="OT7cg2ur5c4f-DrXH7eK-41" edge="1">
          <mxGeometry relative="1" as="geometry">
            <Array as="points">
              <mxPoint x="655" y="290" />
            </Array>
            <mxPoint x="590" y="290" as="sourcePoint" />
            <mxPoint x="655" y="420" as="targetPoint" />
          </mxGeometry>
        </mxCell>
        <mxCell id="OT7cg2ur5c4f-DrXH7eK-21" value="Incident/Fehler" style="text;html=1;strokeColor=none;fillColor=none;align=center;verticalAlign=middle;whiteSpace=wrap;rounded=0;" parent="1" vertex="1">
          <mxGeometry x="650" y="295" width="100" height="35" as="geometry" />
        </mxCell>
        <mxCell id="OT7cg2ur5c4f-DrXH7eK-26" style="edgeStyle=orthogonalEdgeStyle;rounded=0;orthogonalLoop=1;jettySize=auto;html=1;entryX=-0.001;entryY=0.528;entryDx=0;entryDy=0;exitX=0.992;exitY=0.53;exitDx=0;exitDy=0;exitPerimeter=0;entryPerimeter=0;" parent="1" target="OT7cg2ur5c4f-DrXH7eK-25" edge="1" source="OT7cg2ur5c4f-DrXH7eK-60">
          <mxGeometry relative="1" as="geometry">
            <mxPoint x="760.0000000000001" y="131.91999999999996" as="sourcePoint" />
          </mxGeometry>
        </mxCell>
        <mxCell id="OT7cg2ur5c4f-DrXH7eK-25" value="Individual (P31)&lt;br&gt;Standard (P32)" style="shape=ext;rounded=1;html=1;whiteSpace=wrap;" parent="1" vertex="1">
          <mxGeometry x="809.6" y="90" width="120" height="80" as="geometry" />
        </mxCell>
        <mxCell id="OT7cg2ur5c4f-DrXH7eK-28" style="edgeStyle=orthogonalEdgeStyle;rounded=0;orthogonalLoop=1;jettySize=auto;html=1;exitX=1;exitY=0.5;exitDx=0;exitDy=0;" parent="1" source="OT7cg2ur5c4f-DrXH7eK-25" target="OT7cg2ur5c4f-DrXH7eK-29" edge="1">
          <mxGeometry relative="1" as="geometry">
            <mxPoint x="944.6" y="130" as="sourcePoint" />
          </mxGeometry>
        </mxCell>
        <mxCell id="OT7cg2ur5c4f-DrXH7eK-29" value="" style="points=[[0.145,0.145,0],[0.5,0,0],[0.855,0.145,0],[1,0.5,0],[0.855,0.855,0],[0.5,1,0],[0.145,0.855,0],[0,0.5,0]];shape=mxgraph.bpmn.event;html=1;verticalLabelPosition=bottom;labelBackgroundColor=#ffffff;verticalAlign=top;align=center;perimeter=ellipsePerimeter;outlineConnect=0;aspect=fixed;outline=end;symbol=terminate;" parent="1" vertex="1">
          <mxGeometry x="979.6" y="105" width="50" height="50" as="geometry" />
        </mxCell>
        <mxCell id="OT7cg2ur5c4f-DrXH7eK-31" value="Kann der Incident/Fehler durch den Support MA gelÃ¶st werden?" style="text;html=1;strokeColor=none;fillColor=none;align=center;verticalAlign=middle;whiteSpace=wrap;rounded=0;" parent="1" vertex="1">
          <mxGeometry x="490" y="370" width="140" height="65" as="geometry" />
        </mxCell>
        <mxCell id="OT7cg2ur5c4f-DrXH7eK-32" style="edgeStyle=orthogonalEdgeStyle;rounded=0;orthogonalLoop=1;jettySize=auto;html=1;exitX=1;exitY=0.5;exitDx=0;exitDy=0;exitPerimeter=0;" parent="1" source="OT7cg2ur5c4f-DrXH7eK-41" target="OT7cg2ur5c4f-DrXH7eK-34" edge="1">
          <mxGeometry relative="1" as="geometry">
            <mxPoint x="545" y="402.5" as="sourcePoint" />
          </mxGeometry>
        </mxCell>
        <mxCell id="OT7cg2ur5c4f-DrXH7eK-33" value="" style="shape=mxgraph.bpmn.data;labelPosition=center;verticalLabelPosition=bottom;align=center;verticalAlign=top;whiteSpace=wrap;size=15;html=1;bpmnTransferType=output;" parent="1" vertex="1">
          <mxGeometry x="769.6" y="402.5" width="40" height="60" as="geometry" />
        </mxCell>
        <mxCell id="OT7cg2ur5c4f-DrXH7eK-34" value="" style="points=[[0.145,0.145,0],[0.5,0,0],[0.855,0.145,0],[1,0.5,0],[0.855,0.855,0],[0.5,1,0],[0.145,0.855,0],[0,0.5,0]];shape=mxgraph.bpmn.event;html=1;verticalLabelPosition=bottom;labelBackgroundColor=#ffffff;verticalAlign=top;align=center;perimeter=ellipsePerimeter;outlineConnect=0;aspect=fixed;outline=end;symbol=terminate;" parent="1" vertex="1">
          <mxGeometry x="760" y="340" width="50" height="50" as="geometry" />
        </mxCell>
        <mxCell id="OT7cg2ur5c4f-DrXH7eK-35" value="KOS" style="text;html=1;strokeColor=none;fillColor=none;align=center;verticalAlign=middle;whiteSpace=wrap;rounded=0;" parent="1" vertex="1">
          <mxGeometry x="774.6" y="417.5" width="30" height="30" as="geometry" />
        </mxCell>
        <mxCell id="OT7cg2ur5c4f-DrXH7eK-36" style="edgeStyle=orthogonalEdgeStyle;rounded=0;orthogonalLoop=1;jettySize=auto;html=1;exitX=0.5;exitY=1;exitDx=0;exitDy=0;" parent="1" source="OT7cg2ur5c4f-DrXH7eK-35" target="OT7cg2ur5c4f-DrXH7eK-35" edge="1">
          <mxGeometry relative="1" as="geometry" />
        </mxCell>
        <mxCell id="OT7cg2ur5c4f-DrXH7eK-39" value="" style="points=[[0.25,0.25,0],[0.5,0,0],[0.75,0.25,0],[1,0.5,0],[0.75,0.75,0],[0.5,1,0],[0.25,0.75,0],[0,0.5,0]];shape=mxgraph.bpmn.gateway2;html=1;verticalLabelPosition=bottom;labelBackgroundColor=#ffffff;verticalAlign=top;align=center;perimeter=rhombusPerimeter;outlineConnect=0;outline=none;symbol=none;gwType=exclusive;" parent="1" vertex="1">
          <mxGeometry x="540" y="265" width="50" height="50" as="geometry" />
        </mxCell>
        <mxCell id="OT7cg2ur5c4f-DrXH7eK-74" style="edgeStyle=orthogonalEdgeStyle;rounded=0;orthogonalLoop=1;jettySize=auto;html=1;entryX=0.012;entryY=0.419;entryDx=0;entryDy=0;entryPerimeter=0;" parent="1" source="OT7cg2ur5c4f-DrXH7eK-41" target="OT7cg2ur5c4f-DrXH7eK-33" edge="1">
          <mxGeometry relative="1" as="geometry" />
        </mxCell>
        <mxCell id="uSGcIZpnzLXFnjncOjhk-13" style="edgeStyle=orthogonalEdgeStyle;rounded=0;orthogonalLoop=1;jettySize=auto;html=1;entryX=0.5;entryY=0;entryDx=0;entryDy=0;entryPerimeter=0;" edge="1" parent="1" source="OT7cg2ur5c4f-DrXH7eK-41" target="uSGcIZpnzLXFnjncOjhk-11">
          <mxGeometry relative="1" as="geometry" />
        </mxCell>
        <mxCell id="OT7cg2ur5c4f-DrXH7eK-41" value="" style="points=[[0.25,0.25,0],[0.5,0,0],[0.75,0.25,0],[1,0.5,0],[0.75,0.75,0],[0.5,1,0],[0.25,0.75,0],[0,0.5,0]];shape=mxgraph.bpmn.gateway2;html=1;verticalLabelPosition=bottom;labelBackgroundColor=#ffffff;verticalAlign=top;align=center;perimeter=rhombusPerimeter;outlineConnect=0;outline=none;symbol=none;gwType=exclusive;" parent="1" vertex="1">
          <mxGeometry x="630" y="340" width="50" height="50" as="geometry" />
        </mxCell>
        <mxCell id="OT7cg2ur5c4f-DrXH7eK-42" value="Frage" style="text;html=1;strokeColor=none;fillColor=none;align=center;verticalAlign=middle;whiteSpace=wrap;rounded=0;" parent="1" vertex="1">
          <mxGeometry x="670" y="265" width="60" height="30" as="geometry" />
        </mxCell>
        <mxCell id="OT7cg2ur5c4f-DrXH7eK-75" style="edgeStyle=orthogonalEdgeStyle;rounded=0;orthogonalLoop=1;jettySize=auto;html=1;entryX=0.5;entryY=0;entryDx=0;entryDy=0;exitX=0.5;exitY=1;exitDx=0;exitDy=0;exitPerimeter=0;startArrow=none;" parent="1" source="uSGcIZpnzLXFnjncOjhk-11" target="OT7cg2ur5c4f-DrXH7eK-72" edge="1">
          <mxGeometry relative="1" as="geometry">
            <mxPoint x="655" y="500" as="sourcePoint" />
          </mxGeometry>
        </mxCell>
        <mxCell id="OT7cg2ur5c4f-DrXH7eK-47" style="edgeStyle=orthogonalEdgeStyle;rounded=0;orthogonalLoop=1;jettySize=auto;html=1;exitX=0.5;exitY=1;exitDx=0;exitDy=0;" parent="1" edge="1">
          <mxGeometry relative="1" as="geometry">
            <mxPoint x="655" y="522.5" as="sourcePoint" />
            <mxPoint x="655" y="522.5" as="targetPoint" />
          </mxGeometry>
        </mxCell>
        <mxCell id="OT7cg2ur5c4f-DrXH7eK-52" value="Nein" style="text;html=1;strokeColor=none;fillColor=none;align=center;verticalAlign=middle;whiteSpace=wrap;rounded=0;" parent="1" vertex="1">
          <mxGeometry x="640" y="432.5" width="60" height="30" as="geometry" />
        </mxCell>
        <mxCell id="OT7cg2ur5c4f-DrXH7eK-53" style="edgeStyle=orthogonalEdgeStyle;rounded=0;orthogonalLoop=1;jettySize=auto;html=1;entryX=0;entryY=0.5;entryDx=0;entryDy=0;entryPerimeter=0;" parent="1" target="uSGcIZpnzLXFnjncOjhk-6" edge="1">
          <mxGeometry relative="1" as="geometry">
            <mxPoint x="880" y="290" as="sourcePoint" />
            <mxPoint x="938.8399999999999" y="289.72" as="targetPoint" />
            <Array as="points">
              <mxPoint x="910" y="290" />
              <mxPoint x="910" y="360" />
            </Array>
          </mxGeometry>
        </mxCell>
        <mxCell id="OT7cg2ur5c4f-DrXH7eK-54" value="Der Support MA versteht die Frage. Kann die Frage durch den Support MA gelÃ¶st werden?" style="text;html=1;strokeColor=none;fillColor=none;align=center;verticalAlign=middle;whiteSpace=wrap;rounded=0;" parent="1" vertex="1">
          <mxGeometry x="779.6" y="210" width="180" height="40" as="geometry" />
        </mxCell>
        <mxCell id="OT7cg2ur5c4f-DrXH7eK-55" style="edgeStyle=orthogonalEdgeStyle;rounded=0;orthogonalLoop=1;jettySize=auto;html=1;exitX=0.166;exitY=0.833;exitDx=0;exitDy=0;exitPerimeter=0;" parent="1" source="OT7cg2ur5c4f-DrXH7eK-68" target="OT7cg2ur5c4f-DrXH7eK-57" edge="1">
          <mxGeometry relative="1" as="geometry">
            <mxPoint x="980" y="295" as="sourcePoint" />
          </mxGeometry>
        </mxCell>
        <mxCell id="OT7cg2ur5c4f-DrXH7eK-57" value="" style="points=[[0.145,0.145,0],[0.5,0,0],[0.855,0.145,0],[1,0.5,0],[0.855,0.855,0],[0.5,1,0],[0.145,0.855,0],[0,0.5,0]];shape=mxgraph.bpmn.event;html=1;verticalLabelPosition=bottom;labelBackgroundColor=#ffffff;verticalAlign=top;align=center;perimeter=ellipsePerimeter;outlineConnect=0;aspect=fixed;outline=end;symbol=terminate;" parent="1" vertex="1">
          <mxGeometry x="969.6" y="265" width="50" height="50" as="geometry" />
        </mxCell>
        <mxCell id="uSGcIZpnzLXFnjncOjhk-14" style="edgeStyle=orthogonalEdgeStyle;rounded=0;orthogonalLoop=1;jettySize=auto;html=1;entryX=1;entryY=0.5;entryDx=0;entryDy=0;entryPerimeter=0;" edge="1" parent="1" source="OT7cg2ur5c4f-DrXH7eK-59" target="uSGcIZpnzLXFnjncOjhk-11">
          <mxGeometry relative="1" as="geometry">
            <Array as="points">
              <mxPoint x="855" y="504" />
            </Array>
          </mxGeometry>
        </mxCell>
        <mxCell id="OT7cg2ur5c4f-DrXH7eK-59" value="" style="points=[[0.25,0.25,0],[0.5,0,0],[0.75,0.25,0],[1,0.5,0],[0.75,0.75,0],[0.5,1,0],[0.25,0.75,0],[0,0.5,0]];shape=mxgraph.bpmn.gateway2;html=1;verticalLabelPosition=bottom;labelBackgroundColor=#ffffff;verticalAlign=top;align=center;perimeter=rhombusPerimeter;outlineConnect=0;outline=none;symbol=none;gwType=exclusive;" parent="1" vertex="1">
          <mxGeometry x="830" y="265" width="50" height="50" as="geometry" />
        </mxCell>
        <mxCell id="OT7cg2ur5c4f-DrXH7eK-60" value="Der Support MA versteht das Anliegen des Kunden und hÃ¤lt alle Informationen in einem KOS fest." style="shape=ext;rounded=1;html=1;whiteSpace=wrap;" parent="1" vertex="1">
          <mxGeometry x="595" y="90" width="120" height="80" as="geometry" />
        </mxCell>
        <mxCell id="OT7cg2ur5c4f-DrXH7eK-61" style="edgeStyle=orthogonalEdgeStyle;rounded=0;orthogonalLoop=1;jettySize=auto;html=1;entryX=0;entryY=0.5;entryDx=0;entryDy=0;entryPerimeter=0;exitX=0.521;exitY=0.011;exitDx=0;exitDy=0;exitPerimeter=0;" parent="1" target="uSGcIZpnzLXFnjncOjhk-1" edge="1" source="OT7cg2ur5c4f-DrXH7eK-60">
          <mxGeometry relative="1" as="geometry">
            <mxPoint x="665" y="74.99857142857135" as="sourcePoint" />
            <mxPoint x="674.9999999999998" y="75.0044827586207" as="targetPoint" />
          </mxGeometry>
        </mxCell>
        <mxCell id="OT7cg2ur5c4f-DrXH7eK-68" value="Ja" style="text;html=1;strokeColor=none;fillColor=none;align=center;verticalAlign=middle;whiteSpace=wrap;rounded=0;" parent="1" vertex="1">
          <mxGeometry x="870.03" y="265" width="60" height="30" as="geometry" />
        </mxCell>
        <mxCell id="OT7cg2ur5c4f-DrXH7eK-69" value="Nein" style="text;html=1;strokeColor=none;fillColor=none;align=center;verticalAlign=middle;whiteSpace=wrap;rounded=0;" parent="1" vertex="1">
          <mxGeometry x="844.6" y="330" width="60" height="30" as="geometry" />
        </mxCell>
        <mxCell id="OT7cg2ur5c4f-DrXH7eK-77" style="edgeStyle=orthogonalEdgeStyle;rounded=0;orthogonalLoop=1;jettySize=auto;html=1;entryX=0;entryY=0.5;entryDx=0;entryDy=0;entryPerimeter=0;" parent="1" source="OT7cg2ur5c4f-DrXH7eK-72" target="OT7cg2ur5c4f-DrXH7eK-76" edge="1">
          <mxGeometry relative="1" as="geometry" />
        </mxCell>
        <mxCell id="OT7cg2ur5c4f-DrXH7eK-72" value="Der Fall wird in Support Teambesprechung Analysiert" style="shape=ext;rounded=1;html=1;whiteSpace=wrap;" parent="1" vertex="1">
          <mxGeometry x="595" y="590.5" width="120" height="80" as="geometry" />
        </mxCell>
        <mxCell id="OT7cg2ur5c4f-DrXH7eK-85" style="edgeStyle=orthogonalEdgeStyle;rounded=0;orthogonalLoop=1;jettySize=auto;html=1;entryX=0.5;entryY=0;entryDx=0;entryDy=0;" parent="1" source="OT7cg2ur5c4f-DrXH7eK-76" target="OT7cg2ur5c4f-DrXH7eK-84" edge="1">
          <mxGeometry relative="1" as="geometry" />
        </mxCell>
        <mxCell id="OT7cg2ur5c4f-DrXH7eK-76" value="" style="points=[[0.25,0.25,0],[0.5,0,0],[0.75,0.25,0],[1,0.5,0],[0.75,0.75,0],[0.5,1,0],[0.25,0.75,0],[0,0.5,0]];shape=mxgraph.bpmn.gateway2;html=1;verticalLabelPosition=bottom;labelBackgroundColor=#ffffff;verticalAlign=top;align=center;perimeter=rhombusPerimeter;outlineConnect=0;outline=none;symbol=none;gwType=exclusive;" parent="1" vertex="1">
          <mxGeometry x="755" y="605.5" width="50" height="50" as="geometry" />
        </mxCell>
        <mxCell id="OT7cg2ur5c4f-DrXH7eK-78" value="Konnte der Incident / Fehler / Frage durch die Support Teambesprechung gelÃ¶st werden?" style="text;html=1;strokeColor=none;fillColor=none;align=center;verticalAlign=middle;whiteSpace=wrap;rounded=0;" parent="1" vertex="1">
          <mxGeometry x="705" y="535.5" width="150" height="70" as="geometry" />
        </mxCell>
        <mxCell id="OT7cg2ur5c4f-DrXH7eK-79" style="edgeStyle=orthogonalEdgeStyle;rounded=0;orthogonalLoop=1;jettySize=auto;html=1;exitX=0.5;exitY=0;exitDx=0;exitDy=0;entryX=0;entryY=0.5;entryDx=0;entryDy=0;entryPerimeter=0;" parent="1" target="OT7cg2ur5c4f-DrXH7eK-80" edge="1">
          <mxGeometry relative="1" as="geometry">
            <mxPoint x="805" y="630" as="sourcePoint" />
          </mxGeometry>
        </mxCell>
        <mxCell id="OT7cg2ur5c4f-DrXH7eK-80" value="" style="points=[[0.145,0.145,0],[0.5,0,0],[0.855,0.145,0],[1,0.5,0],[0.855,0.855,0],[0.5,1,0],[0.145,0.855,0],[0,0.5,0]];shape=mxgraph.bpmn.event;html=1;verticalLabelPosition=bottom;labelBackgroundColor=#ffffff;verticalAlign=top;align=center;perimeter=ellipsePerimeter;outlineConnect=0;aspect=fixed;outline=end;symbol=terminate;" parent="1" vertex="1">
          <mxGeometry x="830" y="605.5" width="50" height="50" as="geometry" />
        </mxCell>
        <mxCell id="OT7cg2ur5c4f-DrXH7eK-82" value="Nein" style="text;html=1;strokeColor=none;fillColor=none;align=center;verticalAlign=middle;whiteSpace=wrap;rounded=0;" parent="1" vertex="1">
          <mxGeometry x="770" y="690" width="60" height="30" as="geometry" />
        </mxCell>
        <mxCell id="OT7cg2ur5c4f-DrXH7eK-83" value="Ja" style="text;html=1;strokeColor=none;fillColor=none;align=center;verticalAlign=middle;whiteSpace=wrap;rounded=0;" parent="1" vertex="1">
          <mxGeometry x="784.6" y="625.5" width="60" height="30" as="geometry" />
        </mxCell>
        <mxCell id="OT7cg2ur5c4f-DrXH7eK-100" style="edgeStyle=orthogonalEdgeStyle;rounded=0;orthogonalLoop=1;jettySize=auto;html=1;" parent="1" source="OT7cg2ur5c4f-DrXH7eK-84" target="OT7cg2ur5c4f-DrXH7eK-95" edge="1">
          <mxGeometry relative="1" as="geometry" />
        </mxCell>
        <mxCell id="OT7cg2ur5c4f-DrXH7eK-84" value="Fall wird mit dem ursprÃ¼nglichen PL besprochen bzw. an ihn weitergeleitet." style="shape=ext;rounded=1;html=1;whiteSpace=wrap;" parent="1" vertex="1">
          <mxGeometry x="720" y="770" width="120" height="80" as="geometry" />
        </mxCell>
        <mxCell id="OT7cg2ur5c4f-DrXH7eK-94" style="edgeStyle=orthogonalEdgeStyle;rounded=0;orthogonalLoop=1;jettySize=auto;html=1;" parent="1" source="OT7cg2ur5c4f-DrXH7eK-95" edge="1">
          <mxGeometry relative="1" as="geometry">
            <mxPoint x="905" y="900" as="targetPoint" />
          </mxGeometry>
        </mxCell>
        <mxCell id="OT7cg2ur5c4f-DrXH7eK-95" value="" style="points=[[0.25,0.25,0],[0.5,0,0],[0.75,0.25,0],[1,0.5,0],[0.75,0.75,0],[0.5,1,0],[0.25,0.75,0],[0,0.5,0]];shape=mxgraph.bpmn.gateway2;html=1;verticalLabelPosition=bottom;labelBackgroundColor=#ffffff;verticalAlign=top;align=center;perimeter=rhombusPerimeter;outlineConnect=0;outline=none;symbol=none;gwType=exclusive;" parent="1" vertex="1">
          <mxGeometry x="880" y="785" width="50" height="50" as="geometry" />
        </mxCell>
        <mxCell id="OT7cg2ur5c4f-DrXH7eK-96" style="edgeStyle=orthogonalEdgeStyle;rounded=0;orthogonalLoop=1;jettySize=auto;html=1;exitX=0.5;exitY=0;exitDx=0;exitDy=0;entryX=0;entryY=0.5;entryDx=0;entryDy=0;entryPerimeter=0;" parent="1" target="OT7cg2ur5c4f-DrXH7eK-97" edge="1">
          <mxGeometry relative="1" as="geometry">
            <mxPoint x="930" y="809.5" as="sourcePoint" />
          </mxGeometry>
        </mxCell>
        <mxCell id="OT7cg2ur5c4f-DrXH7eK-97" value="" style="points=[[0.145,0.145,0],[0.5,0,0],[0.855,0.145,0],[1,0.5,0],[0.855,0.855,0],[0.5,1,0],[0.145,0.855,0],[0,0.5,0]];shape=mxgraph.bpmn.event;html=1;verticalLabelPosition=bottom;labelBackgroundColor=#ffffff;verticalAlign=top;align=center;perimeter=ellipsePerimeter;outlineConnect=0;aspect=fixed;outline=end;symbol=terminate;" parent="1" vertex="1">
          <mxGeometry x="969.6" y="785" width="50" height="50" as="geometry" />
        </mxCell>
        <mxCell id="OT7cg2ur5c4f-DrXH7eK-98" value="Nein" style="text;html=1;strokeColor=none;fillColor=none;align=center;verticalAlign=middle;whiteSpace=wrap;rounded=0;" parent="1" vertex="1">
          <mxGeometry x="899.6" y="850" width="60" height="30" as="geometry" />
        </mxCell>
        <mxCell id="OT7cg2ur5c4f-DrXH7eK-99" value="Ja" style="text;html=1;strokeColor=none;fillColor=none;align=center;verticalAlign=middle;whiteSpace=wrap;rounded=0;" parent="1" vertex="1">
          <mxGeometry x="915.4" y="805" width="59.6" height="30" as="geometry" />
        </mxCell>
        <mxCell id="OT7cg2ur5c4f-DrXH7eK-101" value="Konnte der Incident / Fehler / Frage durch den PL gelÃ¶st werden?" style="text;html=1;strokeColor=none;fillColor=none;align=center;verticalAlign=middle;whiteSpace=wrap;rounded=0;" parent="1" vertex="1">
          <mxGeometry x="830" y="720" width="150" height="70" as="geometry" />
        </mxCell>
        <mxCell id="OT7cg2ur5c4f-DrXH7eK-105" style="edgeStyle=orthogonalEdgeStyle;rounded=0;orthogonalLoop=1;jettySize=auto;html=1;entryX=0;entryY=0.5;entryDx=0;entryDy=0;entryPerimeter=0;" parent="1" source="OT7cg2ur5c4f-DrXH7eK-103" target="OT7cg2ur5c4f-DrXH7eK-104" edge="1">
          <mxGeometry relative="1" as="geometry" />
        </mxCell>
        <mxCell id="OT7cg2ur5c4f-DrXH7eK-103" value="Auftrag (P33)" style="shape=ext;rounded=1;html=1;whiteSpace=wrap;" parent="1" vertex="1">
          <mxGeometry x="849.6" y="900" width="120" height="80" as="geometry" />
        </mxCell>
        <mxCell id="OT7cg2ur5c4f-DrXH7eK-108" style="edgeStyle=orthogonalEdgeStyle;rounded=0;orthogonalLoop=1;jettySize=auto;html=1;entryX=0;entryY=0.5;entryDx=0;entryDy=0;" parent="1" source="OT7cg2ur5c4f-DrXH7eK-104" target="OT7cg2ur5c4f-DrXH7eK-107" edge="1">
          <mxGeometry relative="1" as="geometry" />
        </mxCell>
        <mxCell id="OT7cg2ur5c4f-DrXH7eK-112" style="edgeStyle=orthogonalEdgeStyle;rounded=0;orthogonalLoop=1;jettySize=auto;html=1;entryX=0.547;entryY=0.004;entryDx=0;entryDy=0;entryPerimeter=0;" parent="1" source="OT7cg2ur5c4f-DrXH7eK-104" target="OT7cg2ur5c4f-DrXH7eK-111" edge="1">
          <mxGeometry relative="1" as="geometry" />
        </mxCell>
        <mxCell id="OT7cg2ur5c4f-DrXH7eK-104" value="" style="points=[[0.25,0.25,0],[0.5,0,0],[0.75,0.25,0],[1,0.5,0],[0.75,0.75,0],[0.5,1,0],[0.25,0.75,0],[0,0.5,0]];shape=mxgraph.bpmn.gateway2;html=1;verticalLabelPosition=bottom;labelBackgroundColor=#ffffff;verticalAlign=top;align=center;perimeter=rhombusPerimeter;outlineConnect=0;outline=none;symbol=none;gwType=exclusive;" parent="1" vertex="1">
          <mxGeometry x="1010" y="915" width="50" height="50" as="geometry" />
        </mxCell>
        <mxCell id="OT7cg2ur5c4f-DrXH7eK-106" value="Konnte der Incident / Fehler / Frage gelÃ¶st werden?" style="text;html=1;strokeColor=none;fillColor=none;align=center;verticalAlign=middle;whiteSpace=wrap;rounded=0;" parent="1" vertex="1">
          <mxGeometry x="960" y="860" width="150" height="70" as="geometry" />
        </mxCell>
        <mxCell id="OT7cg2ur5c4f-DrXH7eK-116" style="edgeStyle=orthogonalEdgeStyle;rounded=0;orthogonalLoop=1;jettySize=auto;html=1;entryX=0;entryY=0.5;entryDx=0;entryDy=0;entryPerimeter=0;" parent="1" source="OT7cg2ur5c4f-DrXH7eK-107" target="OT7cg2ur5c4f-DrXH7eK-115" edge="1">
          <mxGeometry relative="1" as="geometry" />
        </mxCell>
        <mxCell id="OT7cg2ur5c4f-DrXH7eK-107" value="Feedback an Kunden bzw. Ausliefern LÃ¶sung" style="shape=ext;rounded=1;html=1;whiteSpace=wrap;" parent="1" vertex="1">
          <mxGeometry x="1150" y="620" width="120" height="80" as="geometry" />
        </mxCell>
        <mxCell id="OT7cg2ur5c4f-DrXH7eK-109" value="Ja" style="text;html=1;strokeColor=none;fillColor=none;align=center;verticalAlign=middle;whiteSpace=wrap;rounded=0;" parent="1" vertex="1">
          <mxGeometry x="1060" y="915" width="59.6" height="30" as="geometry" />
        </mxCell>
        <mxCell id="OT7cg2ur5c4f-DrXH7eK-113" style="edgeStyle=orthogonalEdgeStyle;rounded=0;orthogonalLoop=1;jettySize=auto;html=1;entryX=0.5;entryY=1;entryDx=0;entryDy=0;" parent="1" source="OT7cg2ur5c4f-DrXH7eK-111" target="OT7cg2ur5c4f-DrXH7eK-107" edge="1">
          <mxGeometry relative="1" as="geometry" />
        </mxCell>
        <mxCell id="OT7cg2ur5c4f-DrXH7eK-111" value="Support MA, PL und Entwicklung suchen Alternative / LÃ¶sung" style="shape=ext;rounded=1;html=1;whiteSpace=wrap;" parent="1" vertex="1">
          <mxGeometry x="969.6" y="1040" width="120" height="80" as="geometry" />
        </mxCell>
        <mxCell id="OT7cg2ur5c4f-DrXH7eK-115" value="" style="points=[[0.145,0.145,0],[0.5,0,0],[0.855,0.145,0],[1,0.5,0],[0.855,0.855,0],[0.5,1,0],[0.145,0.855,0],[0,0.5,0]];shape=mxgraph.bpmn.event;html=1;verticalLabelPosition=bottom;labelBackgroundColor=#ffffff;verticalAlign=top;align=center;perimeter=ellipsePerimeter;outlineConnect=0;aspect=fixed;outline=end;symbol=terminate;" parent="1" vertex="1">
          <mxGeometry x="1330" y="635" width="50" height="50" as="geometry" />
        </mxCell>
        <mxCell id="OT7cg2ur5c4f-DrXH7eK-118" value="" style="rounded=0;whiteSpace=wrap;html=1;fillColor=none;strokeWidth=2;" parent="1" vertex="1">
          <mxGeometry x="130" y="730" width="1350" height="290" as="geometry" />
        </mxCell>
        <mxCell id="OT7cg2ur5c4f-DrXH7eK-119" value="" style="rounded=0;whiteSpace=wrap;html=1;fillColor=none;strokeWidth=2;" parent="1" vertex="1">
          <mxGeometry x="130" y="20" width="60" height="1110" as="geometry" />
        </mxCell>
        <mxCell id="OT7cg2ur5c4f-DrXH7eK-120" value="Support MA" style="text;html=1;strokeColor=none;fillColor=none;align=center;verticalAlign=middle;whiteSpace=wrap;rounded=0;direction=east;rotation=270;" parent="1" vertex="1">
          <mxGeometry x="140" y="360" width="60" height="30" as="geometry" />
        </mxCell>
        <mxCell id="OT7cg2ur5c4f-DrXH7eK-121" value="" style="rounded=0;whiteSpace=wrap;html=1;fillColor=none;strokeWidth=2;" parent="1" vertex="1">
          <mxGeometry x="130" y="1020" width="1350" height="110" as="geometry" />
        </mxCell>
        <mxCell id="OT7cg2ur5c4f-DrXH7eK-122" value="Projektleiter" style="text;html=1;strokeColor=none;fillColor=none;align=center;verticalAlign=middle;whiteSpace=wrap;rounded=0;direction=east;rotation=270;" parent="1" vertex="1">
          <mxGeometry x="130" y="860" width="60" height="30" as="geometry" />
        </mxCell>
        <mxCell id="OT7cg2ur5c4f-DrXH7eK-123" value="Support MA, PL und Entwicklung" style="text;html=1;strokeColor=none;fillColor=none;align=center;verticalAlign=middle;whiteSpace=wrap;rounded=0;direction=east;rotation=270;" parent="1" vertex="1">
          <mxGeometry x="130" y="1060" width="60" height="30" as="geometry" />
        </mxCell>
        <mxCell id="uSGcIZpnzLXFnjncOjhk-1" value="" style="shape=mxgraph.bpmn.data;labelPosition=center;verticalLabelPosition=bottom;align=center;verticalAlign=top;whiteSpace=wrap;size=15;html=1;bpmnTransferType=output;" vertex="1" parent="1">
          <mxGeometry x="739.6" y="30" width="40" height="60" as="geometry" />
        </mxCell>
        <mxCell id="uSGcIZpnzLXFnjncOjhk-2" value="KOS" style="text;html=1;strokeColor=none;fillColor=none;align=center;verticalAlign=middle;whiteSpace=wrap;rounded=0;" vertex="1" parent="1">
          <mxGeometry x="744.6" y="45" width="30" height="30" as="geometry" />
        </mxCell>
        <mxCell id="uSGcIZpnzLXFnjncOjhk-6" value="" style="shape=mxgraph.bpmn.data;labelPosition=center;verticalLabelPosition=bottom;align=center;verticalAlign=top;whiteSpace=wrap;size=15;html=1;bpmnTransferType=output;" vertex="1" parent="1">
          <mxGeometry x="979.6" y="330" width="40" height="60" as="geometry" />
        </mxCell>
        <mxCell id="uSGcIZpnzLXFnjncOjhk-7" value="KOS" style="text;html=1;strokeColor=none;fillColor=none;align=center;verticalAlign=middle;whiteSpace=wrap;rounded=0;" vertex="1" parent="1">
          <mxGeometry x="984.6" y="345" width="30" height="30" as="geometry" />
        </mxCell>
        <mxCell id="uSGcIZpnzLXFnjncOjhk-8" value="" style="shape=mxgraph.bpmn.data;labelPosition=center;verticalLabelPosition=bottom;align=center;verticalAlign=top;whiteSpace=wrap;size=15;html=1;bpmnTransferType=output;" vertex="1" parent="1">
          <mxGeometry x="535" y="471" width="40" height="60" as="geometry" />
        </mxCell>
        <mxCell id="uSGcIZpnzLXFnjncOjhk-9" value="KOS" style="text;html=1;strokeColor=none;fillColor=none;align=center;verticalAlign=middle;whiteSpace=wrap;rounded=0;" vertex="1" parent="1">
          <mxGeometry x="540" y="486" width="30" height="30" as="geometry" />
        </mxCell>
        <mxCell id="uSGcIZpnzLXFnjncOjhk-15" style="edgeStyle=orthogonalEdgeStyle;rounded=0;orthogonalLoop=1;jettySize=auto;html=1;entryX=0.979;entryY=0.552;entryDx=0;entryDy=0;entryPerimeter=0;" edge="1" parent="1" source="uSGcIZpnzLXFnjncOjhk-11" target="uSGcIZpnzLXFnjncOjhk-8">
          <mxGeometry relative="1" as="geometry" />
        </mxCell>
        <mxCell id="uSGcIZpnzLXFnjncOjhk-11" value="" style="points=[[0.25,0.25,0],[0.5,0,0],[0.75,0.25,0],[1,0.5,0],[0.75,0.75,0],[0.5,1,0],[0.25,0.75,0],[0,0.5,0]];shape=mxgraph.bpmn.gateway2;html=1;verticalLabelPosition=bottom;labelBackgroundColor=#ffffff;verticalAlign=top;align=center;perimeter=rhombusPerimeter;outlineConnect=0;outline=none;symbol=none;gwType=exclusive;" vertex="1" parent="1">
          <mxGeometry x="630" y="479" width="50" height="50" as="geometry" />
        </mxCell>
      </root>
    </mxGraphModel>
  </diagram>
</mxfile>
